<svg width="22" height="22" viewBox="0 0 22 22" fill="none" xmlns="http://www.w3.org/2000/svg">
<path d="M16.5281 15.2317L20.4539 19.1575L19.1575 20.4539L15.2317 16.5281C13.8202 17.6574 12.03 18.333 10.083 18.333C5.52901 18.333 1.83301 14.637 1.83301 10.083C1.83301 5.52901 5.52901 1.83301 10.083 1.83301C14.637 1.83301 18.333 5.52901 18.333 10.083C18.333 12.03 17.6574 13.8202 16.5281 15.2317ZM14.689 14.5516C15.8099 13.3964 16.4997 11.8206 16.4997 10.083C16.4997 6.5378 13.6282 3.66634 10.083 3.66634C6.5378 3.66634 3.66634 6.5378 3.66634 10.083C3.66634 13.6282 6.5378 16.4997 10.083 16.4997C11.8206 16.4997 13.3964 15.8099 14.5516 14.689L14.689 14.5516Z" fill="#0F518D"/>
</svg>
