<svg width="10" height="10" viewBox="0 0 10 10" fill="none" xmlns="http://www.w3.org/2000/svg">
<path d="M3.75037 7.60465C3.70841 7.60324 3.66718 7.59327 3.6292 7.57536C3.59123 7.55745 3.55732 7.53197 3.52954 7.50049L1.4462 5.41715C1.40648 5.3914 1.37313 5.35696 1.34867 5.31643C1.32421 5.2759 1.30927 5.23034 1.30499 5.18319C1.30071 5.13605 1.3072 5.08855 1.32396 5.04427C1.34073 5 1.36733 4.96012 1.40177 4.92763C1.4362 4.89515 1.47757 4.87091 1.52274 4.85675C1.56791 4.84259 1.61571 4.83888 1.66253 4.84589C1.70935 4.85291 1.75396 4.87047 1.79299 4.89725C1.83203 4.92403 1.86447 4.95933 1.88787 5.00049L3.75037 6.85049L8.11287 2.50049C8.1716 2.46241 8.24142 2.44515 8.31113 2.45148C8.38084 2.4578 8.44641 2.48735 8.49732 2.53539C8.54824 2.58342 8.58155 2.64715 8.59193 2.71638C8.6023 2.7856 8.58913 2.8563 8.55454 2.91715L3.9712 7.50049C3.94343 7.53197 3.90951 7.55745 3.87154 7.57536C3.83357 7.59327 3.79233 7.60324 3.75037 7.60465Z" fill="white"/>
</svg>
